<mxfile host="app.diagrams.net" agent="Mozilla/5.0 (Windows NT 10.0; Win64; x64) AppleWebKit/537.36 (KHTML, like Gecko) Chrome/130.0.0.0 YaBrowser/24.12.0.0 Safari/537.36" version="26.0.2">
  <diagram name="Page-1" id="2YBvvXClWsGukQMizWep">
    <mxGraphModel dx="1839" dy="550" grid="1" gridSize="10" guides="1" tooltips="1" connect="1" arrows="1" fold="1" page="1" pageScale="1" pageWidth="850" pageHeight="1100" math="0" shadow="0">
      <root>
        <mxCell id="0" />
        <mxCell id="1" parent="0" />
        <mxCell id="ixzwYq51A5YJnmLzg20Y-8" value="Добавление оборудования на склад" style="text;whiteSpace=wrap;html=1;" vertex="1" parent="1">
          <mxGeometry x="170" width="240" height="40" as="geometry" />
        </mxCell>
        <mxCell id="ixzwYq51A5YJnmLzg20Y-9" value="&lt;span style=&quot;text-wrap-mode: nowrap;&quot;&gt;Сотрудник склада&lt;/span&gt;" style="shape=umlLifeline;perimeter=lifelinePerimeter;whiteSpace=wrap;html=1;container=1;dropTarget=0;collapsible=0;recursiveResize=0;outlineConnect=0;portConstraint=eastwest;newEdgeStyle={&quot;curved&quot;:0,&quot;rounded&quot;:0};participant=umlActor;" vertex="1" parent="1">
          <mxGeometry x="30" y="40" width="20" height="440" as="geometry" />
        </mxCell>
        <mxCell id="ixzwYq51A5YJnmLzg20Y-38" value="" style="html=1;points=[[0,0,0,0,5],[0,1,0,0,-5],[1,0,0,0,5],[1,1,0,0,-5]];perimeter=orthogonalPerimeter;outlineConnect=0;targetShapes=umlLifeline;portConstraint=eastwest;newEdgeStyle={&quot;curved&quot;:0,&quot;rounded&quot;:0};" vertex="1" parent="ixzwYq51A5YJnmLzg20Y-9">
          <mxGeometry x="5" y="330" width="10" height="80" as="geometry" />
        </mxCell>
        <mxCell id="ixzwYq51A5YJnmLzg20Y-10" value="Интерфейс пользователя" style="shape=umlLifeline;perimeter=lifelinePerimeter;whiteSpace=wrap;html=1;container=1;dropTarget=0;collapsible=0;recursiveResize=0;outlineConnect=0;portConstraint=eastwest;newEdgeStyle={&quot;curved&quot;:0,&quot;rounded&quot;:0};" vertex="1" parent="1">
          <mxGeometry x="140" y="40" width="100" height="440" as="geometry" />
        </mxCell>
        <mxCell id="ixzwYq51A5YJnmLzg20Y-17" value="" style="html=1;points=[[0,0,0,0,5],[0,1,0,0,-5],[1,0,0,0,5],[1,1,0,0,-5]];perimeter=orthogonalPerimeter;outlineConnect=0;targetShapes=umlLifeline;portConstraint=eastwest;newEdgeStyle={&quot;curved&quot;:0,&quot;rounded&quot;:0};" vertex="1" parent="ixzwYq51A5YJnmLzg20Y-10">
          <mxGeometry x="45" y="70" width="10" height="80" as="geometry" />
        </mxCell>
        <mxCell id="ixzwYq51A5YJnmLzg20Y-36" value="" style="html=1;points=[[0,0,0,0,5],[0,1,0,0,-5],[1,0,0,0,5],[1,1,0,0,-5]];perimeter=orthogonalPerimeter;outlineConnect=0;targetShapes=umlLifeline;portConstraint=eastwest;newEdgeStyle={&quot;curved&quot;:0,&quot;rounded&quot;:0};" vertex="1" parent="ixzwYq51A5YJnmLzg20Y-10">
          <mxGeometry x="45" y="320" width="10" height="40" as="geometry" />
        </mxCell>
        <mxCell id="ixzwYq51A5YJnmLzg20Y-11" value="Система учета оборудования" style="shape=umlLifeline;perimeter=lifelinePerimeter;whiteSpace=wrap;html=1;container=1;dropTarget=0;collapsible=0;recursiveResize=0;outlineConnect=0;portConstraint=eastwest;newEdgeStyle={&quot;curved&quot;:0,&quot;rounded&quot;:0};" vertex="1" parent="1">
          <mxGeometry x="310" y="40" width="100" height="440" as="geometry" />
        </mxCell>
        <mxCell id="ixzwYq51A5YJnmLzg20Y-19" value="" style="html=1;points=[[0,0,0,0,5],[0,1,0,0,-5],[1,0,0,0,5],[1,1,0,0,-5]];perimeter=orthogonalPerimeter;outlineConnect=0;targetShapes=umlLifeline;portConstraint=eastwest;newEdgeStyle={&quot;curved&quot;:0,&quot;rounded&quot;:0};" vertex="1" parent="ixzwYq51A5YJnmLzg20Y-11">
          <mxGeometry x="45" y="140" width="10" height="80" as="geometry" />
        </mxCell>
        <mxCell id="ixzwYq51A5YJnmLzg20Y-30" value="&lt;span style=&quot;text-align: center;&quot;&gt;выполняет валидацию данных&lt;/span&gt;" style="html=1;align=left;spacingLeft=2;endArrow=block;rounded=0;edgeStyle=orthogonalEdgeStyle;curved=0;rounded=0;" edge="1" target="ixzwYq51A5YJnmLzg20Y-19" parent="ixzwYq51A5YJnmLzg20Y-11" source="ixzwYq51A5YJnmLzg20Y-19">
          <mxGeometry relative="1" as="geometry">
            <mxPoint x="80" y="220" as="sourcePoint" />
            <Array as="points">
              <mxPoint x="110" y="180" />
              <mxPoint x="110" y="200" />
            </Array>
          </mxGeometry>
        </mxCell>
        <mxCell id="ixzwYq51A5YJnmLzg20Y-27" value="" style="html=1;points=[[0,0,0,0,5],[0,1,0,0,-5],[1,0,0,0,5],[1,1,0,0,-5]];perimeter=orthogonalPerimeter;outlineConnect=0;targetShapes=umlLifeline;portConstraint=eastwest;newEdgeStyle={&quot;curved&quot;:0,&quot;rounded&quot;:0};" vertex="1" parent="ixzwYq51A5YJnmLzg20Y-11">
          <mxGeometry x="45" y="250" width="10" height="80" as="geometry" />
        </mxCell>
        <mxCell id="ixzwYq51A5YJnmLzg20Y-12" value="База данных" style="shape=umlLifeline;perimeter=lifelinePerimeter;whiteSpace=wrap;html=1;container=1;dropTarget=0;collapsible=0;recursiveResize=0;outlineConnect=0;portConstraint=eastwest;newEdgeStyle={&quot;curved&quot;:0,&quot;rounded&quot;:0};" vertex="1" parent="1">
          <mxGeometry x="630" y="40" width="100" height="440" as="geometry" />
        </mxCell>
        <mxCell id="ixzwYq51A5YJnmLzg20Y-23" value="" style="html=1;points=[[0,0,0,0,5],[0,1,0,0,-5],[1,0,0,0,5],[1,1,0,0,-5]];perimeter=orthogonalPerimeter;outlineConnect=0;targetShapes=umlLifeline;portConstraint=eastwest;newEdgeStyle={&quot;curved&quot;:0,&quot;rounded&quot;:0};" vertex="1" parent="ixzwYq51A5YJnmLzg20Y-12">
          <mxGeometry x="45" y="160" width="10" height="110" as="geometry" />
        </mxCell>
        <mxCell id="ixzwYq51A5YJnmLzg20Y-18" value="добавляет оборудование" style="html=1;verticalAlign=bottom;startArrow=oval;endArrow=block;startSize=8;curved=0;rounded=0;entryX=0;entryY=0;entryDx=0;entryDy=5;" edge="1" target="ixzwYq51A5YJnmLzg20Y-17" parent="1" source="ixzwYq51A5YJnmLzg20Y-9">
          <mxGeometry relative="1" as="geometry">
            <mxPoint x="60" y="175" as="sourcePoint" />
          </mxGeometry>
        </mxCell>
        <mxCell id="ixzwYq51A5YJnmLzg20Y-20" value="передает данные системе." style="html=1;verticalAlign=bottom;startArrow=oval;endArrow=block;startSize=8;curved=0;rounded=0;entryX=0;entryY=0;entryDx=0;entryDy=5;" edge="1" target="ixzwYq51A5YJnmLzg20Y-19" parent="1" source="ixzwYq51A5YJnmLzg20Y-17">
          <mxGeometry relative="1" as="geometry">
            <mxPoint x="250" y="185" as="sourcePoint" />
          </mxGeometry>
        </mxCell>
        <mxCell id="ixzwYq51A5YJnmLzg20Y-25" value="подтверждает успешное добавление" style="html=1;verticalAlign=bottom;endArrow=open;dashed=1;endSize=8;curved=0;rounded=0;exitX=0;exitY=1;exitDx=0;exitDy=-5;" edge="1" source="ixzwYq51A5YJnmLzg20Y-23" parent="1" target="ixzwYq51A5YJnmLzg20Y-27">
          <mxGeometry relative="1" as="geometry">
            <mxPoint x="420" y="280" as="targetPoint" />
          </mxGeometry>
        </mxCell>
        <mxCell id="ixzwYq51A5YJnmLzg20Y-28" value="loop" style="shape=umlFrame;whiteSpace=wrap;html=1;pointerEvents=0;" vertex="1" parent="1">
          <mxGeometry x="-160" y="90" width="590" height="190" as="geometry" />
        </mxCell>
        <mxCell id="ixzwYq51A5YJnmLzg20Y-31" value="(Пока не верные данные)" style="text;html=1;align=center;verticalAlign=middle;resizable=0;points=[];autosize=1;strokeColor=none;fillColor=none;" vertex="1" parent="1">
          <mxGeometry x="-160" y="120" width="170" height="30" as="geometry" />
        </mxCell>
        <mxCell id="ixzwYq51A5YJnmLzg20Y-32" value="" style="html=1;points=[[0,0,0,0,5],[0,1,0,0,-5],[1,0,0,0,5],[1,1,0,0,-5]];perimeter=orthogonalPerimeter;outlineConnect=0;targetShapes=umlLifeline;portConstraint=eastwest;newEdgeStyle={&quot;curved&quot;:0,&quot;rounded&quot;:0};" vertex="1" parent="1">
          <mxGeometry x="185" y="200" width="10" height="80" as="geometry" />
        </mxCell>
        <mxCell id="ixzwYq51A5YJnmLzg20Y-33" value="Отображения неудачу" style="html=1;verticalAlign=bottom;endArrow=open;dashed=1;endSize=8;curved=0;rounded=0;" edge="1" parent="1" source="ixzwYq51A5YJnmLzg20Y-19" target="ixzwYq51A5YJnmLzg20Y-32">
          <mxGeometry relative="1" as="geometry">
            <mxPoint x="330" y="250" as="sourcePoint" />
            <mxPoint x="250" y="250" as="targetPoint" />
          </mxGeometry>
        </mxCell>
        <mxCell id="ixzwYq51A5YJnmLzg20Y-34" style="edgeStyle=orthogonalEdgeStyle;rounded=0;orthogonalLoop=1;jettySize=auto;html=1;curved=0;exitX=1;exitY=1;exitDx=0;exitDy=-5;exitPerimeter=0;" edge="1" parent="1" source="ixzwYq51A5YJnmLzg20Y-19" target="ixzwYq51A5YJnmLzg20Y-23">
          <mxGeometry relative="1" as="geometry" />
        </mxCell>
        <mxCell id="ixzwYq51A5YJnmLzg20Y-35" value="отправляет запрос на добавление записи" style="edgeLabel;html=1;align=center;verticalAlign=middle;resizable=0;points=[];" vertex="1" connectable="0" parent="ixzwYq51A5YJnmLzg20Y-34">
          <mxGeometry x="-0.2182" y="-1" relative="1" as="geometry">
            <mxPoint as="offset" />
          </mxGeometry>
        </mxCell>
        <mxCell id="ixzwYq51A5YJnmLzg20Y-37" value="Отображения удачного добавления" style="html=1;verticalAlign=bottom;endArrow=open;dashed=1;endSize=8;curved=0;rounded=0;" edge="1" parent="1" source="ixzwYq51A5YJnmLzg20Y-27" target="ixzwYq51A5YJnmLzg20Y-36">
          <mxGeometry relative="1" as="geometry">
            <mxPoint x="330" y="350" as="sourcePoint" />
            <mxPoint x="250" y="350" as="targetPoint" />
          </mxGeometry>
        </mxCell>
        <mxCell id="ixzwYq51A5YJnmLzg20Y-39" value="Результат" style="html=1;verticalAlign=bottom;endArrow=open;dashed=1;endSize=8;curved=0;rounded=0;" edge="1" parent="1" source="ixzwYq51A5YJnmLzg20Y-36" target="ixzwYq51A5YJnmLzg20Y-38">
          <mxGeometry relative="1" as="geometry">
            <mxPoint x="170" y="410" as="sourcePoint" />
            <mxPoint x="90" y="410" as="targetPoint" />
          </mxGeometry>
        </mxCell>
      </root>
    </mxGraphModel>
  </diagram>
</mxfile>
